<svg xmlns="http://www.w3.org/2000/svg" version="1.1" xmlns:xlink="http://www.w3.org/1999/xlink" xmlns:svgjs="http://svgjs.dev/svgjs" width="1440" height="600" preserveAspectRatio="none" viewBox="0 0 1440 600"><g mask="url(&quot;#SvgjsMask1001&quot;)" fill="none"><rect width="1440" height="600" x="0" y="0" fill="rgba(45, 64, 158, 1)"></rect><path d="M0,339.164C60.321,322.808,102.938,274.295,160.233,249.327C232.748,217.727,341.48,242.624,380.036,173.556C417.68,106.121,354.309,24.867,325.542,-46.806C302.73,-103.642,271.222,-153.992,230.285,-199.543C190.011,-244.356,141.788,-276.646,90.527,-308.308C21.212,-351.121,-43.331,-436.357,-122.59,-417.502C-200.808,-398.895,-211.748,-289.563,-259.666,-225.002C-303.007,-166.608,-374.609,-127.087,-390.766,-56.184C-407.327,16.49,-374.535,89.208,-347.056,158.495C-318.276,231.062,-297.108,318.515,-227.863,354.562C-158.942,390.441,-74.993,359.499,0,339.164" fill="#24337e"></path><path d="M1440 1192.5639999999999C1548.923 1196.721 1618.141 1078.741 1711.347 1022.2239999999999 1807.812 963.732 1937.807 950.341 1997.42 854.565 2058.577 756.309 2038.3139999999999 630.797 2026.6509999999998 515.652 2014.548 396.16499999999996 2011.865 263.186 1928.738 176.50599999999997 1846.3609999999999 90.60700000000003 1712.175 94.99000000000001 1596.477 67.08799999999997 1486.902 40.66300000000001 1373.404-24.923000000000002 1268.929 17.384000000000015 1165.17 59.400999999999954 1140.545 192.517 1070.702 280.001 1004.53 362.887 882.745 412.741 869.305 517.946 855.863 623.164 946.896 709.8 1004.4069999999999 798.929 1054.128 875.986 1113.606 940.521 1181.646 1002.0070000000001 1262.681 1075.237 1330.858 1188.3980000000001 1440 1192.5639999999999" fill="#364dbe"></path></g><defs><mask id="SvgjsMask1001"><rect width="1440" height="600" fill="#ffffff"></rect></mask></defs></svg>