<svg xmlns="http://www.w3.org/2000/svg" version="1.1" xmlns:xlink="http://www.w3.org/1999/xlink" xmlns:svgjs="http://svgjs.dev/svgjs" width="1440" height="600" preserveAspectRatio="none" viewBox="0 0 1440 600"><g mask="url(&quot;#SvgjsMask1007&quot;)" fill="none"><rect width="1440" height="600" x="0" y="0" fill="rgba(45, 64, 158, 1)"></rect><path d="M0,466.255C86.698,473.999,170.645,424.585,235.697,366.752C295.735,313.376,310.723,230.169,346.474,158.229C383.699,83.322,455.337,18.767,450.116,-64.717C444.827,-149.292,376.793,-214.423,319.276,-276.654C263.315,-337.201,203.662,-401.911,122.943,-418.704C44.226,-435.081,-28.963,-383.547,-107.291,-365.4C-191.684,-345.848,-296.886,-371.837,-355.333,-307.897C-413.683,-244.062,-396.778,-142.301,-390.038,-56.079C-384.364,16.504,-350.801,80.173,-319.845,146.068C-289.241,211.213,-260.974,276.011,-210.107,326.932C-149.49,387.614,-85.431,458.624,0,466.255" fill="#24337e"></path><path d="M1440 1258.444C1561.496 1252.567 1619.854 1104.836 1721.536 1038.078 1821.797 972.2529999999999 1987.9479999999999 981.879 2031.478 870.119 2075.581 756.889 1935.5140000000001 651.518 1918.991 531.131 1902.298 409.503 2003.454 272.896 1935.481 170.663 1868.615 70.09500000000003 1718.083 81.14200000000005 1600.759 52.504999999999995 1489.09 25.248000000000047 1377.801-19.255999999999972 1265.949 7.238000000000056 1151.327 34.388000000000034 1055.5430000000001 111.00299999999999 978.307 199.94099999999997 901.013 288.947 834.805 394.291 827.641 511.956 820.699 625.972 883.909 728.84 940.046 828.321 992.047 920.471 1060.187 997.183 1140.3980000000001 1066.19 1232.21 1145.1779999999999 1319.027 1264.296 1440 1258.444" fill="#364dbe"></path></g><defs><mask id="SvgjsMask1007"><rect width="1440" height="600" fill="#ffffff"></rect></mask></defs></svg>